<?xml version="1.0" encoding="iso-8859-1"?>
<!-- Generator: Adobe Illustrator 18.1.1, SVG Export Plug-In . SVG Version: 6.00 Build 0)  -->
<!DOCTYPE svg PUBLIC "-//W3C//DTD SVG 1.1//EN" "http://www.w3.org/Graphics/SVG/1.1/DTD/svg11.dtd">
<svg version="1.1" id="Layer_1" xmlns="http://www.w3.org/2000/svg" xmlns:xlink="http://www.w3.org/1999/xlink" x="0px" y="0px"
	 viewBox="0 0 500 500" style="enable-background:new 0 0 500 500;" xml:space="preserve">
<path style="fill:#D72027;" d="M109.333,270.667c0-72.349,68-117,131-89c66-27,131,16.651,131,89s-58.651,131-131,131
	S109.333,343.016,109.333,270.667z"/>
<radialGradient id="SVGID_1_" cx="240.3333" cy="185.5" r="153.5557" gradientUnits="userSpaceOnUse">
	<stop  offset="0" style="stop-color:#EC202C"/>
	<stop  offset="1" style="stop-color:#B82025"/>
</radialGradient>
<path style="fill:url(#SVGID_1_);" d="M109.333,270.667c0-72.349,68-117,131-89c66-27,131,16.651,131,89s-58.651,131-131,131
	S109.333,343.016,109.333,270.667z"/>
<radialGradient id="SVGID_2_" cx="240.3333" cy="185.5" r="153.5557" gradientUnits="userSpaceOnUse">
	<stop  offset="0" style="stop-color:#EC202C"/>
	<stop  offset="1" style="stop-color:#B82025"/>
</radialGradient>
<path style="fill:url(#SVGID_2_);" d="M109.333,270.667c0-72.349,68-117,131-89c66-27,131,16.651,131,89s-58.651,131-131,131
	S109.333,343.016,109.333,270.667z"/>
<linearGradient id="SVGID_3_" gradientUnits="userSpaceOnUse" x1="312.5809" y1="92.0654" x2="243.0809" y2="178.0654" gradientTransform="matrix(0.9746 0.2238 -0.2238 0.9746 46.8134 -49.1741)">
	<stop  offset="0" style="stop-color:#39B54A"/>
	<stop  offset="1" style="stop-color:#006838"/>
</linearGradient>
<path style="fill:url(#SVGID_3_);" d="M306.004,163.919c27.136-21.482,32.582-59.805,32.582-59.805s-38.55-3.493-65.686,17.989
	s-32.582,59.805-32.582,59.805S278.868,185.401,306.004,163.919z"/>
<linearGradient id="SVGID_4_" gradientUnits="userSpaceOnUse" x1="278.0173" y1="265.6535" x2="403.0173" y2="189.6535">
	<stop  offset="0" style="stop-color:#FFFFFF"/>
	<stop  offset="1" style="stop-color:#B82025;stop-opacity:0"/>
</linearGradient>
<path style="opacity:0.29;fill:url(#SVGID_4_);" d="M346,297.5c3.083-10.176,5.333-15.663,5.333-26.833
	c0-22.156-7.541-42.117-21.234-56.206c-13.07-13.448-30.885-20.854-50.163-20.854c-1.315,0-2.632,0.035-3.951,0.103
	C320.006,210.259,347.58,244.739,346,297.5z"/>
</svg>
